<svg width="555" height="555" viewBox="0 0 555 555" fill="none" xmlns="http://www.w3.org/2000/svg">
<path d="M494.604 300.199C494.604 421.956 395.901 520.659 274.145 520.659C152.389 520.659 53.6855 421.956 53.6855 300.199C53.6855 178.443 152.389 79.7402 274.145 79.7402C395.901 79.7402 494.604 178.443 494.604 300.199Z" fill="#95D1F9"/>
<path d="M17 70.9609C17 66.7422 20.1631 63.3223 24.065 63.3223H258.935C262.837 63.3223 266 66.7422 266 70.9609V202.684C266 206.902 262.837 210.322 258.935 210.322H24.065C20.1631 210.322 17 206.902 17 202.684V70.9609Z" fill="#E2F1FF"/>
<path d="M17 70.4234C17 66.5015 20.1631 63.3223 24.065 63.3223H258.935C262.837 63.3223 266 66.5015 266 70.4234V87.3223H17V70.4234Z" fill="#3E5FFF"/>
<path d="M164.577 148.111C164.577 160.697 154.374 170.899 141.789 170.899C129.203 170.899 119 160.697 119 148.111C119 135.525 129.203 125.322 141.789 125.322C154.374 125.322 164.577 135.525 164.577 148.111Z" fill="#3E5FFF"/>
<path d="M151.73 146.64C153.423 147.61 153.423 150.035 151.73 151.005L137.809 158.981C136.116 159.951 134 158.738 134 156.798L134 140.846C134 138.906 136.116 137.694 137.809 138.664L151.73 146.64Z" fill="#E2F1FF"/>
<path d="M32.166 74.8223C32.166 77.3075 30.1513 79.3223 27.666 79.3223C25.1807 79.3223 23.166 77.3075 23.166 74.8223C23.166 72.337 25.1807 70.3223 27.666 70.3223C30.1513 70.3223 32.166 72.337 32.166 74.8223Z" fill="#F8F8F8"/>
<path d="M47 74.8223C47 77.3075 44.9853 79.3223 42.5 79.3223C40.0147 79.3223 38 77.3075 38 74.8223C38 72.337 40.0147 70.3223 42.5 70.3223C44.9853 70.3223 47 72.337 47 74.8223Z" fill="#F8F8F8"/>
<path d="M62 74.8223C62 77.3075 59.9853 79.3223 57.5 79.3223C55.0147 79.3223 53 77.3075 53 74.8223C53 72.337 55.0147 70.3223 57.5 70.3223C59.9853 70.3223 62 72.337 62 74.8223Z" fill="#F8F8F8"/>
<mask id="mask0_14601_340202" style="mask-type:alpha" maskUnits="userSpaceOnUse" x="53" y="79" width="442" height="442">
<path d="M494.602 300.199C494.602 421.956 395.899 520.659 274.143 520.659C152.387 520.659 53.6836 421.956 53.6836 300.199C53.6836 178.443 152.387 79.7402 274.143 79.7402C395.899 79.7402 494.602 178.443 494.602 300.199Z" fill="#C3DCF4"/>
</mask>
<g mask="url(#mask0_14601_340202)">
<path d="M397.102 477.598H428.044V537.852C428.044 541.311 425.239 544.116 421.78 544.116C419.016 544.116 416.576 542.302 415.781 539.657L397.102 477.598Z" fill="#FFBD6E"/>
<path d="M153.175 477.598H122.232V537.852C122.232 541.311 125.038 544.116 128.497 544.116C131.261 544.116 133.701 542.302 134.496 539.657L153.175 477.598Z" fill="#FFBD6E"/>
<path d="M437.852 464.645H114.779C111.336 464.645 108.545 475.226 108.545 488.279V537.784C108.545 550.838 111.336 561.419 114.779 561.419H437.852C441.295 561.419 444.086 550.838 444.086 537.784V488.279C444.086 475.226 441.295 464.645 437.852 464.645Z" fill="#E3E3E3"/>
<path d="M93.7915 411.561H454.482C460.084 411.561 464.635 416.111 464.635 421.713V457.463C464.635 472.683 452.275 485.043 437.055 485.043H111.218C95.9984 485.047 83.6387 472.688 83.6387 457.467V421.718C83.6387 416.111 88.1896 411.561 93.7915 411.561Z" fill="#F8F8F8"/>
<path d="M149.89 249.959H397.389C415.373 249.959 429.976 264.562 429.976 282.547V425.659C429.976 431.845 424.955 436.867 418.768 436.867H128.511C122.324 436.867 117.303 431.845 117.303 425.659V282.547C117.303 264.562 131.906 249.959 149.89 249.959Z" fill="#E3E3E3"/>
<path d="M464.644 394.681V444.527H395.306V394.681C395.306 375.545 410.841 360.01 429.977 360.01C449.113 360.01 464.648 375.545 464.648 394.681H464.644Z" fill="#F8F8F8"/>
<path d="M152.978 394.681V444.527H83.64V394.681C83.64 375.545 99.1753 360.01 118.311 360.01C137.447 360.01 152.982 375.545 152.982 394.681H152.978Z" fill="#F8F8F8"/>
<path d="M99.1988 460.919C102.3 459.169 105.83 462.41 104.349 465.649L98.7898 477.813C98.1277 479.262 98.4736 480.972 99.6467 482.049L109.497 491.095C112.12 493.504 110.128 497.863 106.59 497.456L93.3037 495.927C91.7214 495.745 90.2019 496.602 89.5398 498.051L83.9801 510.215C82.4997 513.454 77.7392 512.906 77.033 509.416L74.3811 496.307C74.0653 494.746 72.7802 493.566 71.1979 493.384L57.9113 491.855C54.3732 491.448 53.423 486.751 56.5247 485.001L68.1723 478.428C69.5594 477.645 70.2847 476.058 69.9689 474.497L67.317 461.388C66.6108 457.898 70.7841 455.543 73.4072 457.952L83.2577 466.998C84.4308 468.075 86.1641 468.275 87.5513 467.492L99.1988 460.919Z" fill="#FF7059"/>
<path d="M87.8566 485.221C87.2396 486.989 85.3068 487.921 83.5396 487.304C81.7724 486.687 80.84 484.754 81.457 482.987C82.074 481.22 84.0068 480.287 85.774 480.904C87.5412 481.521 88.4736 483.454 87.8566 485.221Z" fill="#E55041"/>
<path d="M97.8776 489.733C97.4979 490.82 96.3085 491.394 95.221 491.014C94.1335 490.635 93.5597 489.445 93.9394 488.358C94.3191 487.27 95.5086 486.696 96.5961 487.076C97.6836 487.456 98.2574 488.645 97.8776 489.733Z" fill="#E55041"/>
<path d="M93.321 475.377C92.9413 476.465 91.7519 477.039 90.6644 476.659C89.5769 476.279 89.0031 475.09 89.3828 474.002C89.7625 472.915 90.9519 472.341 92.0394 472.721C93.1269 473.1 93.7007 474.29 93.321 475.377Z" fill="#E55041"/>
<path d="M74.3464 486.305C73.9667 487.393 72.7773 487.966 71.6898 487.587C70.6023 487.207 70.0285 486.018 70.4082 484.93C70.7879 483.843 71.9773 483.269 73.0648 483.648C74.1523 484.028 74.7261 485.218 74.3464 486.305Z" fill="#E55041"/>
<path d="M84.696 495.502C84.3163 496.59 83.1269 497.164 82.0394 496.784C80.9519 496.404 80.3781 495.215 80.7578 494.127C81.1375 493.04 82.3269 492.466 83.4144 492.846C84.5019 493.225 85.0757 494.415 84.696 495.502Z" fill="#E55041"/>
<path d="M80.9499 474.248C80.5702 475.336 79.3808 475.91 78.2933 475.53C77.2058 475.15 76.632 473.961 77.0117 472.873C77.3914 471.786 78.5808 471.212 79.6683 471.592C80.7558 471.972 81.3296 473.161 80.9499 474.248Z" fill="#E55041"/>
<path d="M344.297 393.43L342.805 394.096L344.004 392.631L344.297 393.43Z" fill="white"/>
<path d="M244.871 155.449C244.871 162.067 242.238 168.417 237.554 173.113L229.864 180.803C225.18 185.486 222.547 191.836 222.547 198.466V200.435C222.547 214.23 233.732 225.404 247.516 225.404H294.634C308.429 225.404 319.603 214.219 319.603 200.435V198.082C319.603 194.703 318.263 191.475 315.874 189.087L309.816 183.028C307.427 180.64 306.087 177.4 306.087 174.033C306.087 170.666 304.747 167.427 302.359 165.038L297.57 160.238" fill="black"/>
<path d="M347.858 376.011L193.977 375.812C193.977 375.812 186.718 370.628 171.781 358.487C156.844 346.346 161.516 323.486 161.516 323.486L170.628 294.054L186.427 253.868C190.563 243.335 198.067 234.469 207.761 228.619L245.267 206.016H299.936L336.463 228.025C346.763 234.224 354.546 243.836 358.508 255.173L378.63 312.941C383.325 326.422 383.535 339.588 377.698 351.391C375.251 356.343 371.452 360.514 366.838 363.543L347.858 375.999" fill="#E47B4C"/>
<path d="M300.306 206.039L276.235 246.259C274.58 249.021 270.584 249.021 268.941 246.259L244.881 206.039L254.796 151.941H290.391L300.306 206.039Z" fill="#FFBD6E"/>
<path d="M296.858 187.176C295.076 188.703 293.095 189.996 290.963 191.033C287.339 192.792 283.261 193.771 278.962 193.771C274.126 193.771 269.594 192.524 265.644 190.334C264.374 189.623 265.132 187.677 266.53 187.992C268.475 188.423 270.503 188.656 272.577 188.656C281.805 188.656 290.007 184.112 295.006 177.121L296.858 187.176Z" fill="#E59A48"/>
<path d="M251.233 146.174C251.233 142.655 248.378 139.801 244.86 139.801C241.341 139.801 238.486 142.655 238.486 146.174C238.486 149.693 241.341 155.449 244.86 155.449C248.378 155.449 251.233 149.704 251.233 146.174Z" fill="#FFBD6E"/>
<path d="M306.68 146.174C306.68 142.655 303.826 139.801 300.307 139.801C296.788 139.801 293.934 142.655 293.934 146.174C293.934 149.693 296.788 155.449 300.307 155.449C303.826 155.449 306.68 149.704 306.68 146.174Z" fill="#FFBD6E"/>
<path d="M272.591 188.654C257.806 188.654 245.665 176.979 245.071 162.217L244.127 138.797C243.475 122.625 256.408 109.168 272.591 109.168C288.775 109.168 301.708 122.625 301.056 138.797L300.112 162.217C299.518 176.991 287.377 188.654 272.591 188.654Z" fill="#FFBD6E"/>
<path d="M301.079 137.645V138.798L301.056 138.751V138.798L300.694 149.89C300.66 150.741 299.972 151.417 299.122 151.417H298.422C298.05 151.417 297.677 151.277 297.385 151.032L276.052 132.506C273.838 130.584 270.983 129.512 268.047 129.512H261.756C255.942 129.512 250.931 133.613 249.79 139.322L247.622 150.158C247.483 150.904 246.818 151.428 246.073 151.428C245.222 151.428 244.512 150.752 244.488 149.89L244.139 138.856C244.139 138.856 244.139 138.763 244.139 138.728V138.157C244.139 122.591 256.431 109.495 271.997 109.169C288.006 108.831 301.091 121.705 301.091 137.633L301.079 137.645Z" fill="black"/>
<path d="M284.16 159.619C284.16 161.891 283.822 163.732 282.797 163.732C281.771 163.732 281.434 161.891 281.434 159.619C281.434 157.347 281.771 155.506 282.797 155.506C283.822 155.506 284.16 157.347 284.16 159.619Z" fill="black"/>
<path d="M263.771 159.619C263.771 161.891 263.433 163.732 262.408 163.732C261.383 163.732 261.045 161.891 261.045 159.619C261.045 157.347 261.383 155.506 262.408 155.506C263.433 155.506 263.771 157.347 263.771 159.619Z" fill="black"/>
<path d="M257.993 153.106C257.539 153.106 257.084 152.908 256.793 152.512C256.304 151.848 256.432 150.927 257.084 150.426C257.201 150.333 259.997 148.259 264.145 148.445C264.972 148.48 265.613 149.179 265.567 150.007C265.532 150.834 264.821 151.475 264.005 151.428C260.976 151.288 258.902 152.791 258.879 152.815C258.611 153.013 258.296 153.106 257.993 153.106Z" fill="black"/>
<path d="M287.2 153.118C286.885 153.118 286.571 153.024 286.303 152.815C286.256 152.78 284.182 151.3 281.176 151.428C280.36 151.463 279.65 150.822 279.615 150.007C279.58 149.179 280.221 148.48 281.036 148.445C285.184 148.259 287.98 150.333 288.097 150.426C288.749 150.927 288.877 151.859 288.388 152.523C288.097 152.92 287.642 153.118 287.2 153.118Z" fill="black"/>
<path d="M272.554 180.057C272.099 180.057 271.727 179.684 271.727 179.23C271.727 178.775 272.099 178.402 272.554 178.402C279.137 178.402 283.541 174.499 283.588 174.464C283.926 174.161 284.45 174.184 284.764 174.522C285.067 174.86 285.044 175.385 284.706 175.699C284.508 175.886 279.801 180.08 272.554 180.08" fill="black"/>
<path d="M316 353.78L316 257.864C316 252.594 311.091 248.322 305.035 248.322L242.965 248.322C236.909 248.322 232 252.594 232 257.864L232 353.78C232 359.05 236.909 363.322 242.965 363.322L305.035 363.322C311.091 363.322 316 359.05 316 353.78Z" fill="black"/>
<path d="M267.291 305.992C267.291 309.676 270.277 312.662 273.961 312.662C277.645 312.662 280.631 309.676 280.631 305.992C280.631 302.308 277.645 299.322 273.961 299.322C270.277 299.322 267.291 302.308 267.291 305.992Z" fill="#3D3D3D"/>
<path d="M192.437 432.086C192.437 432.086 185.36 440.706 176.729 442.731L159.824 370.663C167.913 368.766 175.332 392.887 182.83 391.128" fill="black"/>
<path d="M320.734 318.33H289.933C287.79 318.33 286.368 320.535 287.281 322.457L290.772 329.773C291.907 332.153 293.873 334.046 296.304 335.109L318.598 344.878C319.268 345.169 319.997 345.322 320.734 345.322C323.643 345.322 326 342.993 326 340.117V323.527C326 320.652 323.643 318.322 320.734 318.322" fill="#FFBD6E"/>
<path d="M230.111 398.594C230.111 383.168 242.617 370.662 258.043 370.662H345.704C361.13 370.662 373.635 383.168 373.635 398.594V409.686C373.635 425.112 361.13 437.617 345.704 437.617H258.043C242.617 437.617 230.111 425.112 230.111 409.686V398.594Z" fill="#4680E1"/>
<path d="M177.739 384.684C176.138 378.656 180.88 372.818 187.108 373.148L336.859 381.093L338.226 408.283C339.028 424.24 326.306 437.617 310.329 437.617H198.866C194.699 437.617 191.054 434.813 189.984 430.786L177.739 384.684Z" fill="#4680E1"/>
<path fill-rule="evenodd" clip-rule="evenodd" d="M223.005 375.326L252.941 378.332L282.628 437.616L282.626 437.617H198.862C194.695 437.617 191.05 434.813 189.98 430.786L177.755 384.756C176.149 378.707 180.927 372.857 187.175 373.223L223.005 375.326Z" fill="#306DC6"/>
<path d="M224.452 351.273C237.616 351.273 248.992 360.464 251.76 373.333L283.059 518.874C284.289 524.597 279.928 529.996 274.075 529.996L221.747 529.996C217.144 529.996 213.251 526.59 212.639 522.027L193.996 382.915C191.751 366.165 204.78 351.273 221.68 351.273L224.452 351.273Z" fill="#4680E1"/>
</g>
<path d="M375.553 70.0669C375.553 66.164 378.717 63 382.62 63H532.807C536.71 63 539.874 66.164 539.874 70.0669V267.439C539.874 271.342 536.71 274.506 532.807 274.506H382.62C378.717 274.506 375.553 271.342 375.553 267.439V70.0669Z" fill="#E2F1FF"/>
<path d="M375.553 70.0669C375.553 66.164 378.717 63 382.62 63H532.807C536.71 63 539.874 66.164 539.874 70.0669V86.8846H375.553V70.0669Z" fill="#3E5FFF"/>
<path d="M391 74.8223C391 77.3075 388.985 79.3223 386.5 79.3223C384.015 79.3223 382 77.3075 382 74.8223C382 72.337 384.015 70.3223 386.5 70.3223C388.985 70.3223 391 72.337 391 74.8223Z" fill="#F8F8F8"/>
<path d="M405 74.8223C405 77.3075 402.985 79.3223 400.5 79.3223C398.015 79.3223 396 77.3075 396 74.8223C396 72.337 398.015 70.3223 400.5 70.3223C402.985 70.3223 405 72.337 405 74.8223Z" fill="#F8F8F8"/>
<path d="M419 74.8223C419 77.3075 416.985 79.3223 414.5 79.3223C412.015 79.3223 410 77.3075 410 74.8223C410 72.337 412.015 70.3223 414.5 70.3223C416.985 70.3223 419 72.337 419 74.8223Z" fill="#F8F8F8"/>
<path fill-rule="evenodd" clip-rule="evenodd" d="M436.74 179.658C433.688 175.421 432.051 170.33 432.061 165.108C432.061 151.42 443.067 140.322 456.645 140.322C470.223 140.322 481.23 151.42 481.23 165.108C481.24 170.33 479.602 175.421 476.55 179.658L464.742 160.326L463.603 162.268L464.758 167.664L456.645 153.669L451.626 162.214L452.794 167.666L448.541 160.338L436.74 179.658Z" fill="#3E5FFF"/>
<path fill-rule="evenodd" clip-rule="evenodd" d="M429.911 201.981L424.434 193.766V201.981H422V190.069H424.815L429.987 197.843V190.069H432.421V201.981H429.911ZM433.872 197.936C433.872 195.517 435.865 193.676 438.329 193.676C440.779 193.676 442.741 195.472 442.741 197.891C442.741 200.34 440.748 202.166 438.299 202.166C435.834 202.166 433.872 200.386 433.872 197.936ZM436.306 197.906C436.306 199.138 437.204 199.99 438.314 199.99C439.425 199.99 440.307 199.138 440.307 197.906C440.307 196.689 439.41 195.837 438.299 195.837C437.189 195.837 436.306 196.689 436.306 197.906ZM448.56 193.858V196.186C448.24 196.125 447.905 196.125 447.799 196.125C446.658 196.125 445.867 196.916 445.867 198.422V201.982H443.539V193.858H445.791V195.045H445.821C446.262 194.116 447.084 193.767 447.921 193.767C448.103 193.767 448.392 193.812 448.56 193.858ZM455.415 201.982V200.947H455.385C454.624 202.058 453.407 202.134 452.859 202.134C450.501 202.134 448.995 200.095 448.995 197.904C448.995 195.851 450.562 193.705 452.89 193.705C453.362 193.705 454.487 193.797 455.324 194.786H455.355V189.598H457.713V201.982H455.415ZM455.415 197.904C455.415 196.687 454.518 195.85 453.407 195.85C452.296 195.85 451.399 196.687 451.399 197.904C451.399 199.137 452.296 199.989 453.407 199.989C454.518 199.989 455.415 199.137 455.415 197.904ZM462.757 201.981L458.451 190.069H461.114L464.202 199.121L467.306 190.069H469.922L465.602 201.981H462.757ZM479.621 193.888C479.621 196.52 477.765 197.782 475.27 197.782H473.398V201.981H470.934V190.069H475.361C477.749 190.069 479.621 191.362 479.621 193.888ZM477.141 193.948C477.141 192.792 476.167 192.397 475.148 192.397H473.398V195.485H475.163C476.137 195.485 477.141 195.059 477.141 193.948ZM488.773 201.981L483.296 193.766V201.981H480.862V190.069H483.676L488.849 197.843V190.069H491.283V201.981H488.773Z" fill="black"/>
<path fill-rule="evenodd" clip-rule="evenodd" d="M494.825 194.516C493.622 194.516 492.656 193.545 492.656 192.344C492.656 191.151 493.622 190.172 494.825 190.172C496.027 190.172 497.001 191.151 497.001 192.344C497.001 193.545 496.027 194.516 494.825 194.516ZM494.824 190.567C493.851 190.567 493.068 191.357 493.068 192.344C493.068 193.332 493.851 194.122 494.824 194.122C495.79 194.122 496.589 193.332 496.589 192.344C496.589 191.357 495.79 190.567 494.824 190.567ZM494.499 192.691V193.584H493.985V191.104H494.966C495.449 191.104 495.852 191.357 495.852 191.886C495.852 192.257 495.655 192.486 495.378 192.597L495.892 193.584H495.33L494.879 192.691H494.499ZM495.331 191.901C495.331 191.657 495.125 191.593 494.927 191.593H494.5V192.209H494.935C495.125 192.209 495.331 192.13 495.331 191.901Z" fill="black"/>
</svg>
