<svg xmlns="http://www.w3.org/2000/svg" viewBox="0 0 32 32" version="1.1">
<path fill-rule="evenodd" d="M14.6667,14.6666L14.6667,10.6666C14.6667,8.45745 12.8759,6.66659 10.6667,6.66659 8.45761,6.66659 6.66675,8.45745 6.66675,10.6666L6.66675,14.6666 14.6667,14.6666z M5.33341,10.6666L5.33341,14.6666 4.00008,14.6666C3.2637,14.6666,2.66675,15.2635,2.66675,15.9999L2.66675,26.6666C2.66675,27.403,3.2637,27.9999,4.00008,27.9999L17.3334,27.9999 17.3335,27.9999 17.3335,28 18.6668,28 28.0002,28C28.7365,28,29.3335,27.403,29.3335,26.6667L29.3335,20C29.3335,19.2636,28.7365,18.6667,28.0002,18.6667L26.6668,18.6667 26.6668,16.6667C26.6668,14.8257 25.1744,13.3333 23.3335,13.3333 21.4925,13.3333 20.0002,14.8257 20.0002,16.6667L20.0002,18.6667 18.6668,18.6667 18.6667,18.6667 18.6667,15.9999C18.6667,15.2635,18.0698,14.6666,17.3334,14.6666L16.0001,14.6666 16.0001,10.6666C16.0001,7.72107 13.6123,5.33325 10.6667,5.33325 7.72123,5.33325 5.33341,7.72107 5.33341,10.6666z M25.3335,20L26.6668,20 28.0002,20 28.0002,26.6667 18.6668,26.6667 18.6668,23.9999 20.6667,23.9999C21.0349,23.9999 21.3334,23.7014 21.3334,23.3333 21.3334,22.9651 21.0349,22.6666 20.6667,22.6666L18.6668,22.6666 18.6668,20 20.0002,20 21.3335,20 25.3335,20z M25.3335,16.6667L25.3335,18.6667 21.3335,18.6667 21.3335,16.6667C21.3335,15.5621 22.2289,14.6667 23.3335,14.6667 24.4381,14.6667 25.3335,15.5621 25.3335,16.6667z M14.6667,15.9999L16.0001,15.9999 17.3334,15.9999 17.3334,18.6666 15.3334,18.6666C14.9652,18.6666 14.6667,18.9651 14.6667,19.3333 14.6667,19.7014 14.9652,19.9999 15.3334,19.9999L17.3334,19.9999 17.3334,21.3333 15.3334,21.3333C14.9652,21.3333 14.6667,21.6317 14.6667,21.9999 14.6667,22.3681 14.9652,22.6666 15.3334,22.6666L17.3334,22.6666 17.3334,23.9999 15.3334,23.9999C14.9652,23.9999 14.6667,24.2984 14.6667,24.6666 14.6667,25.0348 14.9652,25.3333 15.3334,25.3333L17.3334,25.3333 17.3334,26.6666 4.00008,26.6666 4.00008,25.3333 6.00008,25.3333C6.36827,25.3333 6.66675,25.0348 6.66675,24.6666 6.66675,24.2984 6.36827,23.9999 6.00008,23.9999L4.00008,23.9999 4.00008,22.6666 6.00008,22.6666C6.36827,22.6666 6.66675,22.3681 6.66675,21.9999 6.66675,21.6317 6.36827,21.3333 6.00008,21.3333L4.00008,21.3333 4.00008,19.9999 6.00008,19.9999C6.36827,19.9999 6.66675,19.7014 6.66675,19.3333 6.66675,18.9651 6.36827,18.6666 6.00008,18.6666L4.00008,18.6666 4.00008,15.9999 5.33341,15.9999 6.66675,15.9999 14.6667,15.9999z M28.0001,22.6666L26.0001,22.6666C25.6319,22.6666 25.3334,22.9651 25.3334,23.3333 25.3334,23.7014 25.6319,23.9999 26.0001,23.9999L28.0001,23.9999 28.0001,22.6666z" />
</svg>