<svg xmlns="http://www.w3.org/2000/svg" viewBox="0 0 32 32" version="1.1">
<path fill-rule="evenodd" d="M12.2382,8.00008C11.1472,8.00008,10.1612,8.65024,9.73144,9.653L8.613,12.2627C8.46797,12.6011 8.07605,12.7579 7.73763,12.6128 7.39921,12.4678 7.24244,12.0759 7.38748,11.7375L8.50592,9.12778C9.14577,7.63477,10.6138,6.66675,12.2382,6.66675L19.4239,6.66675C20.9036,6.66675,22.2662,7.47167,22.9803,8.76766L24.5841,11.6783C24.7618,12.0008 24.6444,12.4063 24.322,12.584 23.9995,12.7617 23.594,12.6443 23.4163,12.3218L21.8125,9.41113C21.3329,8.5407,20.4177,8.00008,19.4239,8.00008L12.2382,8.00008z M7.10739,14.9105C12.9461,13.4508,19.0544,13.4508,24.8931,14.9105L26.5052,15.3135C26.8624,15.4028 27.2244,15.1856 27.3137,14.8284 27.403,14.4712 27.1858,14.1093 26.8286,14.02L25.2165,13.617C19.1654,12.1042,12.835,12.1042,6.78401,13.617L5.17188,14.02C4.81469,14.1093 4.59751,14.4712 4.68681,14.8284 4.77611,15.1856 5.13807,15.4028 5.49526,15.3135L7.10739,14.9105z M10.0002,25.3334C11.8412,25.3334 13.3336,23.841 13.3336,22.0001 13.3336,20.1591 11.8412,18.6667 10.0002,18.6667 8.15929,18.6667 6.66691,20.1591 6.66691,22.0001 6.66691,23.841 8.15929,25.3334 10.0002,25.3334z M14.6199,22.6651C14.2971,24.9274 12.3518,26.6667 10.0002,26.6667 7.42291,26.6667 5.33357,24.5774 5.33357,22.0001 5.33357,19.4228 7.42291,17.3334 10.0002,17.3334 12.3518,17.3334 14.2971,19.0727 14.6199,21.335 14.6354,21.334 14.6511,21.3334 14.6669,21.3334L17.3336,21.3334C17.3494,21.3334 17.3651,21.334 17.3806,21.335 17.7034,19.0727 19.6487,17.3334 22.0002,17.3334 24.5776,17.3334 26.6669,19.4228 26.6669,22.0001 26.6669,24.5774 24.5776,26.6667 22.0002,26.6667 19.6487,26.6667 17.7034,24.9274 17.3806,22.6651 17.3651,22.6662 17.3494,22.6667 17.3336,22.6667L14.6669,22.6667C14.6511,22.6667,14.6354,22.6662,14.6199,22.6651z M22.0002,25.3334C23.8412,25.3334 25.3336,23.841 25.3336,22.0001 25.3336,20.1591 23.8412,18.6667 22.0002,18.6667 20.1593,18.6667 18.6669,20.1591 18.6669,22.0001 18.6669,23.841 20.1593,25.3334 22.0002,25.3334z" />
</svg>