<svg xmlns="http://www.w3.org/2000/svg" viewBox="0 0 32 32" version="1.1">
<path fill-rule="evenodd" d="M14.745,2.66675C15.0915,2.66675,15.3725,2.9503,15.3725,3.30008L15.3725,4.86413C15.3725,6.48444 14.1678,7.72044 12.8087,8.21686 9.18168,9.54163 6.58815,13.0608 6.58815,17.1941 6.58815,22.4648 10.8042,26.7334 15.9999,26.7334 21.1956,26.7334 25.4117,22.4648 25.4117,17.1941 25.4117,13.0608 22.8182,9.54163 19.1912,8.21686 17.832,7.72043 16.6274,6.4844 16.6274,4.8641L16.6274,3.30008C16.6274,2.9503 16.9083,2.66675 17.2548,2.66675 17.6014,2.66675 17.8823,2.9503 17.8823,3.30008L17.8823,4.8641C17.8823,5.79868 18.5972,6.65287 19.6182,7.02578 23.7286,8.52711 26.6666,12.5131 26.6666,17.1941 26.6666,22.3797 23.0599,26.715 18.2461,27.7601L18.5772,28.3336C18.7613,28.6525 18.6521,29.0602 18.3332,29.2443 18.0144,29.4284 17.6066,29.3191 17.4225,29.0003L16.8266,27.9681C16.7734,27.9722,16.7201,27.976,16.6667,27.9793L16.6667,28.7565C16.6667,29.1247 16.3683,29.4232 16.0001,29.4232 15.6319,29.4232 15.3334,29.1247 15.3334,28.7565L15.3334,27.9793C15.2799,27.976,15.2265,27.9723,15.1732,27.9681L14.5773,29.0003C14.3932,29.3191 13.9855,29.4284 13.6666,29.2443 13.3478,29.0602 13.2385,28.6525 13.4226,28.3336L13.7537,27.7601C8.93989,26.715 5.33325,22.3797 5.33325,17.1941 5.33325,12.5131 8.27127,8.52711 12.3817,7.02578 13.4027,6.65287 14.1176,5.79871 14.1176,4.86413L14.1176,3.30008C14.1176,2.9503,14.3985,2.66675,14.745,2.66675z M15.2785,25.3015C15.6758,25.3375 16,25.0106 16,24.6116 16,24.2126 15.6755,23.8933 15.279,23.8494 13.8057,23.6864 12.423,23.0274 11.3648,21.9692 10.1355,20.7399 9.44488,19.0726 9.44488,17.3341 9.44488,15.5955 10.1355,13.9282 11.3648,12.6989 12.423,11.6407 13.8057,10.9817 15.279,10.8187 15.6755,10.7748 16,10.4555 16,10.0565 16,9.65751 15.6758,9.33068 15.2785,9.36665 13.4213,9.53476 11.6724,10.3479 10.3431,11.6772 8.84285,13.1775 8,15.2123 8,17.3341 8,19.4558 8.84286,21.4906 10.3431,22.9909 11.6724,24.3202 13.4213,25.1334 15.2785,25.3015z M19.9729,22.353C19.7098,22.6509 19.236,22.6491 18.9455,22.3747 18.6551,22.1004 18.6587,21.6578 18.9155,21.355 19.3126,20.8866 19.6384,20.3668 19.8825,19.8103 20.2216,19.037 20.3962,18.2082 20.3962,17.3712 20.3962,16.5342 20.2216,15.7054 19.8825,14.9321 19.6384,14.3756 19.3126,13.8557 18.9155,13.3874 18.6587,13.0845 18.6551,12.6419 18.9455,12.3676 19.236,12.0933 19.7098,12.0914 19.9729,12.3894 20.5047,12.9916 20.9379,13.6675 21.2568,14.3945 21.6707,15.3382 21.8837,16.3497 21.8837,17.3712 21.8837,18.3927 21.6707,19.4042 21.2568,20.3479 20.9379,21.0749 20.5047,21.7507 19.9729,22.353z M16,21.911C16,22.3288 15.6597,22.6729 15.2462,22.6139 14.805,22.5509 14.3725,22.4327 13.959,22.2614 13.312,21.9934 12.724,21.6005 12.2288,21.1053 11.7335,20.6101 11.3407,20.0221 11.0726,19.375 10.8046,18.728 10.6667,18.0344 10.6667,17.3341 10.6667,16.6337 10.8046,15.9402 11.0726,15.2931 11.3407,14.646 11.7335,14.0581 12.2288,13.5628 12.724,13.0676 13.312,12.6747 13.959,12.4067 14.3725,12.2354 14.805,12.1173 15.2462,12.0543 15.6597,11.9952 16,12.3394 16,12.7571 16,13.1748 15.6581,13.5059 15.2486,13.5881 15.0058,13.6368 14.7678,13.7091 14.5379,13.8043 14.0744,13.9963 13.6532,14.2777 13.2984,14.6325 12.9436,14.9873 12.6622,15.4084 12.4702,15.872 12.2782,16.3355 12.1794,16.8323 12.1794,17.3341 12.1794,17.8358 12.2782,18.3326 12.4702,18.7962 12.6622,19.2597 12.9436,19.6809 13.2984,20.0356 13.6532,20.3904 14.0744,20.6718 14.5379,20.8638 14.7678,20.9591 15.0058,21.0314 15.2486,21.08 15.6581,21.1622 16,21.4933 16,21.911z M15.1506,19.8618C15.6032,20.0139,16,19.6137,16,19.1363L16,18.6401C16,18.4367 15.829,18.2783 15.6411,18.2004 15.5274,18.1533 15.424,18.0842 15.3369,17.9972 15.2498,17.9101 15.1808,17.8067 15.1336,17.6929 15.0865,17.5792 15.0623,17.4572 15.0623,17.3341 15.0623,17.2109 15.0865,17.089 15.1336,16.9752 15.1808,16.8614 15.2498,16.7581 15.3369,16.671 15.424,16.5839 15.5274,16.5148 15.6411,16.4677 15.829,16.3899 16,16.2314 16,16.0281L16,15.5319C16,15.0544 15.6032,14.6542 15.1506,14.8063 15.0929,14.8257 15.0359,14.847 14.9795,14.8704 14.656,15.0044 14.362,15.2008 14.1144,15.4484 13.8668,15.6961 13.6703,15.99 13.5363,16.3136 13.4023,16.6371 13.3333,16.9839 13.3333,17.3341 13.3333,17.6843 13.4023,18.031 13.5363,18.3546 13.6703,18.6781 13.8668,18.9721 14.1144,19.2197 14.362,19.4673 14.656,19.6637 14.9795,19.7977 15.0359,19.8211 15.0929,19.8425 15.1506,19.8618z" />
</svg>