<svg width="32" height="32" viewBox="0 0 32 32" fill="none" stroke-width="1.33333" stroke-linecap="butt" stroke-linejoin="miter" xmlns="http://www.w3.org/2000/svg">
    <defs>
        <clipPath id="clip0">
            <rect width="32" height="32" />
        </clipPath>
    </defs>
    <g clip-path="url(#clip0)">
        <ellipse cx="16" cy="6.6668" rx="3.3333" ry="3.3333" stroke="currentColor" />
        <ellipse cx="6.6667" cy="24" rx="3.3333" ry="3.3333" stroke="currentColor" />
        <ellipse cx="25.3333" cy="24" rx="3.3333" ry="3.3333" stroke="currentColor" />
        <path d="M19.9303 7.41363C19.9761 7.17149 20 6.92164 20 6.6662C20 6.43786 19.9809 6.21398 19.9441 5.99609C24.6341 7.62756 28 12.0871 28 17.3329C28 18.4866 27.8372 19.6023 27.5333 20.6583C27.1609 20.4126 26.745 20.2275 26.2997 20.117C26.539 19.2295 26.6667 18.2961 26.6667 17.3329C26.6667 12.8298 23.8763 8.97846 19.9303 7.41363ZM21.9736 26.1712C20.2693 27.3254 18.2134 27.9995 16 27.9995C13.7866 27.9995 11.7307 27.3254 10.0264 26.1712C9.78043 26.5509 9.47187 26.8863 9.11531 27.1627C11.0642 28.5302 13.4384 29.3329 16 29.3329C18.5616 29.3329 20.9358 28.5302 22.8847 27.1627C22.5281 26.8863 22.2196 26.5509 21.9736 26.1712ZM4 17.3329C4 18.4866 4.16282 19.6023 4.46674 20.6583C4.83913 20.4126 5.25501 20.2275 5.70035 20.117C5.461 19.2295 5.33333 18.2961 5.33333 17.3329C5.33333 12.8298 8.12371 8.97846 12.0697 7.41363C12.0239 7.17149 12 6.92164 12 6.6662C12 6.43786 12.0191 6.21398 12.0559 5.99609C7.36595 7.62756 4 12.0871 4 17.3329Z" fill="currentColor" fill-rule="evenodd" />
    </g>
</svg>
